<?xml version="1.0" standalone="no"?><!-- Generator: Gravit.io --><svg xmlns="http://www.w3.org/2000/svg" xmlns:xlink="http://www.w3.org/1999/xlink" style="isolation:isolate" viewBox="0 0 300 76.08" width="300" height="76.08"><defs><clipPath id="_clipPath_f50OcvYUTRBl1aNAye3NTBVvINJRilOm"><rect width="300" height="76.08"/></clipPath></defs><g clip-path="url(#_clipPath_f50OcvYUTRBl1aNAye3NTBVvINJRilOm)"><g id="QUnit-Logo"><g id="g12"><g id="Text"><path d=" M 200.794 13.565 L 189.531 13.565 C 188.908 13.565 188.289 14.218 188.146 14.828 L 184.147 33.397 L 180.154 52.299 C 180.017 52.911 179.398 53.813 178.771 53.813 L 170.798 53.813 C 162.92 53.813 163.832 47.991 165.446 40.516 L 168.675 23.857 L 170.489 14.828 C 170.619 14.218 170.213 13.565 169.586 13.565 L 158.018 13.565 C 157.395 13.565 156.782 14.218 156.65 14.828 L 151.444 39.666 C 148.584 52.743 149.345 64.867 164.911 65.252 C 165.157 65.256 189.819 65.252 189.819 65.252 C 190.442 65.252 191.066 65.092 191.191 64.485 L 196.423 39.56 L 201.696 14.737 C 201.831 14.125 201.421 13.565 200.794 13.565" fill="rgb(255,255,255)"/><path d=" M 132.989 37.867 L 130.701 45.955 L 128.493 53.081 C 128.352 53.575 127.632 53.905 127.122 53.905 L 116.386 53.905 C 108.24 53.905 106.262 47.612 108.24 38.219 C 110.22 28.609 114.291 22.677 122.304 22.068 C 133.256 21.24 135.637 28.979 132.989 37.867 M 139.985 53.5 C 139.985 53.5 145.042 41.201 146.201 34.112 C 147.755 24.602 143.006 10.827 124.63 10.827 C 106.358 10.827 98.423 23.983 95.397 38.285 C 92.373 52.693 96.34 65.326 114.501 65.218 L 142.235 65.122 C 142.746 65.117 143.273 64.708 143.406 64.215 L 145.74 55.312 C 145.87 54.814 145.552 54.4 145.033 54.395 L 142.809 54.387 L 140.562 54.37 C 140.129 54.361 139.877 54.086 139.931 53.71 L 139.985 53.5 Z " fill="rgb(255,255,255)"/><path d=" M 236.76 63.462 C 236.596 64.286 235.775 65.219 234.939 65.219 L 225.015 65.219 C 224.179 65.219 223.64 64.286 223.803 63.467 C 223.803 63.467 227.801 44.157 227.993 43.346 C 227.993 43.346 229.704 36.078 224.321 36.078 L 219.771 36.078 C 218.926 36.078 218.106 36.759 217.932 37.576 L 212.398 63.462 C 212.226 64.282 211.402 65.219 210.567 65.219 L 200.973 65.219 C 200.145 65.219 199.596 64.286 199.773 63.467 L 207.66 26.086 C 207.835 25.266 208.656 24.276 209.491 24.276 C 209.491 24.276 225.986 24.276 229.704 24.276 C 245.993 24.276 241.066 42.484 241.066 42.484 C 240.845 43.279 236.76 63.462 236.76 63.462" fill="rgb(255,255,255)"/><path d=" M 260.253 22.193 C 256.665 22.193 254.039 21.072 254.993 16.618 C 255.953 12.157 259.057 11.044 262.637 11.044 C 266.062 11.044 268.772 12.157 267.81 16.618 C 266.861 20.989 263.753 22.193 260.253 22.193 Z  M 257.075 63.467 C 256.903 64.286 256.071 65.219 255.235 65.219 L 245.231 65.219 C 244.394 65.219 243.867 64.286 244.044 63.474 L 252.11 26.418 C 252.293 25.607 253.112 24.788 253.941 24.788 L 263.664 24.788 C 264.504 24.788 265.04 25.728 264.872 26.548 L 257.075 63.467" fill="rgb(255,255,255)"/><path d=" M 271.811 65.252 C 270.986 65.219 270.466 64.26 270.646 63.441 L 276.851 35.199 C 277.028 34.392 276.497 33.719 275.66 33.719 L 270.883 33.719 C 270.052 33.719 269.524 33.057 269.723 32.242 L 271.068 26.426 C 271.264 25.613 272.11 24.761 272.941 24.761 L 278.174 24.761 C 278.998 24.761 279.829 24.293 280.01 23.464 L 281.578 16.739 C 281.75 15.924 282.577 15.744 283.418 15.744 L 291.25 15.744 C 292.083 15.744 292.622 16.02 292.447 16.835 L 290.924 23.665 C 290.753 24.485 291.292 24.761 292.12 24.761 L 298.796 24.761 C 299.623 24.761 300.151 25.613 299.962 26.426 L 298.594 32.28 C 298.411 33.095 297.565 33.789 296.734 33.789 L 290.564 33.789 C 289.733 33.789 288.905 34.517 288.716 35.334 L 282.51 63.796 C 282.343 64.612 281.515 65.277 280.687 65.251 L 271.811 65.252" fill="rgb(255,255,255)"/></g><g id="Logo"><path d=" M 76.084 67.608 C 76.084 71.724 71.934 76.081 67.804 76.081 L 7.854 76.081 C 3.734 76.081 0 71.724 0 67.608 L 0 7.646 C 0 3.53 3.734 0 7.854 0 L 67.804 0 C 71.934 0 76.084 3.53 76.084 7.646 L 76.084 67.608 Z " fill="rgb(153,32,148)"/><line x1="67.02" y1="40.901" x2="65.071" y2="50.06"/><line x1="62.016" y1="40.901" x2="60.538" y2="47.743"/><path d=" M 66.683 40.237 L 62.526 40.237 C 62.292 40.237 62.058 40.55 62.016 40.774 L 60.538 47.676 L 59.065 54.844 C 59.013 55.079 58.779 55.597 58.549 55.597 L 56.027 55.597 L 55.605 55.597 C 52.69 55.597 53.025 53.281 53.616 50.52 L 53.643 50.278 L 53.704 49.851 L 53.716 49.752 L 53.854 49.022 L 53.995 48.253 C 54.039 48.027 54.104 47.684 54.142 47.472 L 54.816 44.187 L 55.492 40.774 C 55.54 40.55 55.388 40.237 55.157 40.237 L 50.881 40.237 C 50.649 40.237 50.421 40.55 50.378 40.774 L 49.695 45.199 L 48.691 49.851 C 47.629 54.685 47.678 59.261 53.424 59.261 L 53.59 59.261 L 62.618 59.261 C 62.853 59.261 63.08 59.261 63.124 59.027 L 65.071 49.96 L 67.02 40.725 C 67.072 40.508 66.919 40.237 66.683 40.237" fill="rgb(255,255,255)"/><path d=" M 36.482 37.025 L 34.793 43.761 L 33.151 49.366 C 33.047 49.78 32.505 49.742 32.116 49.742 L 24.149 49.742 C 18.119 49.742 16.647 44.821 18.119 36.994 C 19.593 28.999 22.608 24.223 28.553 23.713 C 36.686 23.031 38.446 29.626 36.482 37.025 M 41.666 50.034 C 41.666 50.034 45.421 39.809 46.27 33.892 C 47.427 25.988 43.908 14.521 30.274 14.521 C 16.725 14.521 10.832 25.468 8.586 37.372 C 6.342 49.362 9.285 59.88 22.759 59.796 L 33.398 59.75 L 43.341 59.712 C 43.713 59.712 44.108 59.361 44.205 58.951 L 45.934 51.548 C 46.032 51.127 45.8 50.788 45.417 50.788 L 43.759 50.771 L 42.099 50.762 C 41.766 50.755 41.586 50.528 41.62 50.206 L 41.666 50.034" fill="rgb(255,255,255)"/></g></g></g></g></svg>